<?xml version="1.0" encoding="UTF-8" standalone="no"?>
<svg
   xmlns:dc="http://purl.org/dc/elements/1.1/"
   xmlns:cc="http://creativecommons.org/ns#"
   xmlns:rdf="http://www.w3.org/1999/02/22-rdf-syntax-ns#"
   xmlns:svg="http://www.w3.org/2000/svg"
   xmlns="http://www.w3.org/2000/svg"
   version="1.1"
   id="svg3732"
   viewBox="0 0 40 20"
   height="20"
   width="40">
  <defs
     id="defs3734" />
  <metadata
     id="metadata3737">
    <rdf:RDF>
      <cc:Work
         rdf:about="">
        <dc:format>image/svg+xml</dc:format>
        <dc:type
           rdf:resource="http://purl.org/dc/dcmitype/StillImage" />
        <dc:title></dc:title>
      </cc:Work>
    </rdf:RDF>
  </metadata>
  <g
     transform="translate(-226.91188,-466.43111)"
     id="layer1">
    <g
       transform="matrix(0.3527778,0,0,-0.35277813,232.9119,486.16646)"
       id="g20">
      <path
         id="path22"
         style="fill:#a09a97;fill-opacity:1;fill-rule:nonzero;stroke:none"
         d="m 0,0 c -8.964,0 -16.258,7.293 -16.258,16.258 l 0,22.677 c 0,8.964 7.294,16.258 16.258,16.258 l 79.37,0 c 8.964,0 16.258,-7.294 16.258,-16.258 l 0,-22.677 C 95.628,7.293 88.334,0 79.37,0 L 0,0 Z" />
    </g>
    <g
       transform="matrix(0.3527778,0,0,-0.35277813,260.9119,466.43106)"
       id="g24">
      <path
         id="path26"
         style="fill:#a09a97;fill-opacity:1;fill-rule:nonzero;stroke:none"
         d="m 0,0 -79.37,0 c -9.393,0 -17.008,-7.615 -17.008,-17.008 l 0,-22.677 c 0,-9.393 7.615,-17.008 17.008,-17.008 l 79.37,0 c 9.394,0 17.008,7.615 17.008,17.008 l 0,22.677 C 17.008,-7.615 9.394,0 0,0 m 0,-1.5 c 8.551,0 15.508,-6.957 15.508,-15.508 l 0,-22.677 C 15.508,-48.236 8.551,-55.193 0,-55.193 l -79.37,0 c -8.551,0 -15.508,6.957 -15.508,15.508 l 0,22.677 c 0,8.551 6.957,15.508 15.508,15.508 L 0,-1.5" />
    </g>
    <g
       transform="matrix(0.35303791,0,0,-0.35330567,232.90157,486.18111)"
       id="g28">
      <path
         id="path30"
         style="fill:#d3d1cb;fill-opacity:1;fill-rule:nonzero;stroke:none"
         d="m 0,0 c -8.964,0 -16.258,7.293 -16.258,16.258 l 0,22.677 c 0,8.964 7.294,16.258 16.258,16.258 l 79.37,0 c 8.964,0 16.258,-7.294 16.258,-16.258 l 0,-22.677 C 95.628,7.293 88.334,0 79.37,0 L 0,0 Z" />
    </g>
    <g
       transform="matrix(0.36349588,0,0,-0.36345962,238.23038,476.43123)"
       id="g152">
      <path
         id="path154"
         style="fill:#a09188;fill-opacity:1;fill-rule:nonzero;stroke:none"
         d="m 0,0 c 0,3.522 -2.855,6.378 -6.378,6.378 -3.522,0 -6.378,-2.856 -6.378,-6.378 0,-3.522 2.856,-6.378 6.378,-6.378 C -2.855,-6.378 0,-3.522 0,0" />
    </g>
    <g
       transform="matrix(0.36349588,0,0,-0.36345962,238.23038,476.43123)"
       id="g156">
      <path
         id="path158"
         style="fill:none;stroke:#7f7b79;stroke-width:1;stroke-linecap:butt;stroke-linejoin:miter;stroke-miterlimit:10;stroke-dasharray:none;stroke-opacity:1"
         d="m 0,0 c 0,3.522 -2.855,6.378 -6.378,6.378 -3.522,0 -6.378,-2.856 -6.378,-6.378 0,-3.522 2.856,-6.378 6.378,-6.378 C -2.855,-6.378 0,-3.522 0,0 Z" />
    </g>
    <g
       transform="matrix(0.36349588,0,0,-0.36345962,235.31697,475.40102)"
       id="g160">
      <path
         id="path162"
         style="fill:#54504e;fill-opacity:1;fill-rule:nonzero;stroke:none"
         d="M 0,0 -1.637,-2.834 0,-5.669 l 3.273,0 L 4.91,-2.834 3.273,0 0,0 Z" />
    </g>
  </g>
</svg>
