<?xml version="1.0" encoding="UTF-8" standalone="no"?>
<svg
   xmlns:dc="http://purl.org/dc/elements/1.1/"
   xmlns:cc="http://creativecommons.org/ns#"
   xmlns:rdf="http://www.w3.org/1999/02/22-rdf-syntax-ns#"
   xmlns:svg="http://www.w3.org/2000/svg"
   xmlns="http://www.w3.org/2000/svg"
   version="1.1"
   id="svg3887"
   viewBox="0 0 55 10.000001"
   height="10"
   width="55">
  <defs
     id="defs3889" />
  <metadata
     id="metadata3892">
    <rdf:RDF>
      <cc:Work
         rdf:about="">
        <dc:format>image/svg+xml</dc:format>
        <dc:type
           rdf:resource="http://purl.org/dc/dcmitype/StillImage" />
        <dc:title></dc:title>
      </cc:Work>
    </rdf:RDF>
  </metadata>
  <g
     transform="translate(-318.58938,-690.59428)"
     id="layer1">
    <g
       transform="matrix(0.3527778,0,0,-0.35277813,359.58917,700.41796)"
       id="g76">
      <path
         id="path78"
         style="fill:#282828;fill-opacity:1;fill-rule:nonzero;stroke:none"
         d="m 0,0 c -1.287,0 -2.334,1.047 -2.334,2.334 l 0,1.418 c 0,1.839 -1.496,3.334 -3.335,3.334 l -65.197,0 c -1.839,0 -3.335,-1.495 -3.335,-3.334 l 0,-1.418 C -74.201,1.047 -75.248,0 -76.535,0 l -36.851,0 c -1.287,0 -2.334,1.047 -2.334,2.334 l 0,8.504 c 0,1.288 1.047,2.335 2.334,2.335 l 15.591,0 c 1.839,0 3.335,1.496 3.335,3.335 l 0,1.417 c 0,1.287 1.047,2.335 2.335,2.335 l 22.676,0 c 1.839,0 3.335,1.495 3.335,3.334 l 0,1.418 c 0,1.287 1.048,2.334 2.335,2.334 l 51.023,0 c 1.288,0 2.335,-1.047 2.335,-2.334 l 0,-1.418 c 0,-1.839 1.496,-3.334 3.335,-3.334 l 22.677,0 c 1.287,0 2.334,-1.048 2.334,-2.335 l 0,-1.417 c 0,-1.839 1.496,-3.335 3.335,-3.335 l 15.591,0 c 1.287,0 2.334,-1.047 2.334,-2.335 l 0,-8.504 C 39.185,1.047 38.138,0 36.851,0 L 0,0 Z" />
    </g>
    <g
       transform="matrix(0.3527778,0,0,-0.35277813,355.08918,690.59443)"
       id="g80">
      <path
         id="path82"
         style="fill:#282828;fill-opacity:1;fill-rule:nonzero;stroke:none"
         d="m 0,0 -51.023,0 c -1.566,0 -2.835,-1.269 -2.835,-2.834 l 0,-1.418 c 0,-1.565 -1.269,-2.834 -2.835,-2.834 l -22.677,0 c -1.566,0 -2.835,-1.269 -2.835,-2.835 l 0,-1.417 c 0,-1.566 -1.269,-2.835 -2.834,-2.835 l -15.591,0 c -1.565,0 -2.834,-1.269 -2.834,-2.835 l 0,-8.504 c 0,-1.565 1.269,-2.834 2.834,-2.834 l 36.851,0 c 1.565,0 2.834,1.269 2.834,2.834 l 0,1.418 c 0,1.565 1.269,2.834 2.835,2.834 l 65.197,0 c 1.565,0 2.834,-1.269 2.834,-2.834 l 0,-1.418 c 0,-1.565 1.269,-2.834 2.835,-2.834 l 36.85,0 c 1.566,0 2.835,1.269 2.835,2.834 l 0,8.504 c 0,1.566 -1.269,2.835 -2.835,2.835 l -15.59,0 c -1.566,0 -2.835,1.269 -2.835,2.835 l 0,1.417 c 0,1.566 -1.269,2.835 -2.834,2.835 l -22.678,0 c -1.565,0 -2.834,1.269 -2.834,2.834 l 0,1.418 C 2.835,-1.269 1.566,0 0,0 m 0,-1 c 1.012,0 1.835,-0.823 1.835,-1.834 l 0,-1.418 c 0,-2.114 1.72,-3.834 3.834,-3.834 l 22.678,0 c 1.011,0 1.834,-0.823 1.834,-1.835 l 0,-1.417 c 0,-2.115 1.72,-3.835 3.835,-3.835 l 15.59,0 c 1.012,0 1.835,-0.823 1.835,-1.835 l 0,-8.504 c 0,-1.011 -0.823,-1.834 -1.835,-1.834 l -36.85,0 c -1.012,0 -1.835,0.823 -1.835,1.834 l 0,1.418 c 0,2.114 -1.72,3.834 -3.834,3.834 l -65.197,0 c -2.115,0 -3.835,-1.72 -3.835,-3.834 l 0,-1.418 c 0,-1.011 -0.823,-1.834 -1.834,-1.834 l -36.851,0 c -1.012,0 -1.834,0.823 -1.834,1.834 l 0,8.504 c 0,1.012 0.822,1.835 1.834,1.835 l 15.591,0 c 2.114,0 3.834,1.72 3.834,3.835 l 0,1.417 c 0,1.012 0.824,1.835 1.835,1.835 l 22.677,0 c 2.115,0 3.835,1.72 3.835,3.834 l 0,1.418 c 0,1.011 0.823,1.834 1.835,1.834 L 0,-1" />
    </g>
    <g
       transform="matrix(0.35182856,0,0,-0.34740003,359.55298,700.34428)"
       id="g84">
      <path
         id="path86"
         style="fill:#5b5b5a;fill-opacity:1;fill-rule:nonzero;stroke:none"
         d="m 0,0 c -1.287,0 -2.334,1.047 -2.334,2.334 l 0,1.418 c 0,1.839 -1.496,3.334 -3.335,3.334 l -65.197,0 c -1.839,0 -3.335,-1.495 -3.335,-3.334 l 0,-1.418 C -74.201,1.047 -75.248,0 -76.535,0 l -36.851,0 c -1.287,0 -2.334,1.047 -2.334,2.334 l 0,8.504 c 0,1.288 1.047,2.335 2.334,2.335 l 15.591,0 c 1.839,0 3.335,1.496 3.335,3.335 l 0,1.417 c 0,1.287 1.047,2.335 2.335,2.335 l 22.676,0 c 1.839,0 3.335,1.495 3.335,3.334 l 0,1.418 c 0,1.287 1.048,2.334 2.335,2.334 l 51.023,0 c 1.288,0 2.335,-1.047 2.335,-2.334 l 0,-1.418 c 0,-1.839 1.496,-3.334 3.335,-3.334 l 22.677,0 c 1.287,0 2.334,-1.048 2.334,-2.335 l 0,-1.417 c 0,-1.839 1.496,-3.335 3.335,-3.335 l 15.591,0 c 1.287,0 2.334,-1.047 2.334,-2.335 l 0,-8.504 C 39.185,1.047 38.138,0 36.851,0 L 0,0 Z" />
    </g>
    <g
       transform="matrix(0.36347157,0,0,-0.36346058,348.40756,694.5944)"
       id="g176">
      <path
         id="path178"
         style="fill:#a09188;fill-opacity:1;fill-rule:nonzero;stroke:none"
         d="m 0,0 c 0,3.522 -2.855,6.378 -6.378,6.378 -3.522,0 -6.378,-2.856 -6.378,-6.378 0,-3.522 2.856,-6.378 6.378,-6.378 C -2.855,-6.378 0,-3.522 0,0" />
    </g>
    <g
       transform="matrix(0.36347157,0,0,-0.36346058,348.40756,694.5944)"
       id="g180">
      <path
         id="path182"
         style="fill:none;stroke:#7f7b79;stroke-width:1;stroke-linecap:butt;stroke-linejoin:miter;stroke-miterlimit:10;stroke-dasharray:none;stroke-opacity:1"
         d="m 0,0 c 0,3.522 -2.855,6.378 -6.378,6.378 -3.522,0 -6.378,-2.856 -6.378,-6.378 0,-3.522 2.856,-6.378 6.378,-6.378 C -2.855,-6.378 0,-3.522 0,0 Z" />
    </g>
    <g
       transform="matrix(0.36347157,0,0,-0.36346058,345.49445,693.56399)"
       id="g184">
      <path
         id="path186"
         style="fill:#54504e;fill-opacity:1;fill-rule:nonzero;stroke:none"
         d="M 0,0 -1.636,-2.835 0,-5.669 l 3.273,0 L 4.91,-2.835 3.273,0 0,0 Z" />
    </g>
  </g>
</svg>
