<?xml version="1.0" encoding="UTF-8" standalone="no"?>
<svg
   xmlns:dc="http://purl.org/dc/elements/1.1/"
   xmlns:cc="http://creativecommons.org/ns#"
   xmlns:rdf="http://www.w3.org/1999/02/22-rdf-syntax-ns#"
   xmlns:svg="http://www.w3.org/2000/svg"
   xmlns="http://www.w3.org/2000/svg"
   viewBox="0 0 220 140"
   height="140"
   width="220"
   xml:space="preserve"
   version="1.1"
   id="svg2"><metadata
     id="metadata8"><rdf:RDF><cc:Work
         rdf:about=""><dc:format>image/svg+xml</dc:format><dc:type
           rdf:resource="http://purl.org/dc/dcmitype/StillImage" /><dc:title></dc:title></cc:Work></rdf:RDF></metadata><defs
     id="defs6" /><g
     transform="matrix(1.25,0,0,-1.25,-8.9898025,160.89501)"
     id="g10"><g
       transform="matrix(0.28222224,0,0,0.2822225,63.19179,83.327914)"
       id="g52"><path
         id="path54"
         style="fill:#a09a97;fill-opacity:1;fill-rule:nonzero;stroke:none"
         d="m 0,0 c -33.237,0 -60.278,-27.041 -60.278,-60.278 0,-33.237 27.041,-60.277 60.278,-60.277 33.237,0 60.277,27.04 60.277,60.277 C 60.277,-27.041 33.237,0 0,0 m 226.771,0 c -33.236,0 -60.277,-27.041 -60.277,-60.278 0,-33.237 27.041,-60.277 60.277,-60.277 33.238,0 60.278,27.04 60.278,60.277 0,33.237 -27.04,60.278 -60.278,60.278 m 158.741,-235.276 c -8.965,0 -16.258,7.293 -16.258,16.258 l 0,79.37 c 0,9.792 -7.966,17.758 -17.758,17.758 l -22.677,0 c -9.792,0 -17.758,-7.966 -17.758,-17.758 l 0,-79.37 c 0,-8.965 -7.293,-16.258 -16.258,-16.258 l -22.677,0 c -8.964,0 -16.258,7.293 -16.258,16.258 l 0,22.677 c 0,9.792 -7.966,17.758 -17.758,17.758 l -249.449,0 c -9.791,0 -17.758,-7.966 -17.758,-17.758 l 0,-22.677 c 0,-8.965 -7.293,-16.258 -16.257,-16.258 l -22.678,0 c -8.965,0 -16.258,7.293 -16.258,16.258 l 0,79.37 c 0,9.792 -7.966,17.758 -17.757,17.758 l -22.677,0 c -9.792,0 -17.758,-7.966 -17.758,-17.758 l 0,-79.37 c 0,-8.965 -7.293,-16.258 -16.258,-16.258 l -22.677,0 c -8.965,0 -16.258,7.293 -16.258,16.258 l 0,136.063 c 0,8.965 7.293,16.258 16.258,16.258 l 22.677,0 c 9.792,0 17.758,7.967 17.758,17.758 l 0,22.677 c 0,8.965 7.293,16.258 16.258,16.258 l 22.677,0 c 9.791,0 17.757,7.966 17.757,17.758 l 0,22.677 c 0,8.965 7.293,16.258 16.258,16.258 l 22.678,0 c 9.791,0 17.757,7.966 17.757,17.758 l 0,22.677 c 0,9.792 -7.966,17.758 -17.757,17.758 l -22.678,0 c -8.965,0 -16.258,7.293 -16.258,16.258 l 0,22.677 c 0,8.964 7.293,16.257 16.258,16.257 l 22.678,0 c 8.964,0 16.257,-7.293 16.257,-16.257 l 0,-22.677 c 0,-9.792 7.967,-17.758 17.758,-17.758 l 22.677,0 c 8.965,0 16.258,-7.294 16.258,-16.258 l 0,-22.677 c 0,-9.792 7.967,-17.758 17.758,-17.758 l 136.063,0 c 9.792,0 17.758,7.966 17.758,17.758 l 0,22.677 c 0,8.964 7.293,16.258 16.258,16.258 l 22.677,0 c 9.792,0 17.758,7.966 17.758,17.758 l 0,22.677 c 0,8.964 7.294,16.257 16.258,16.257 l 22.677,0 c 8.965,0 16.258,-7.293 16.258,-16.257 l 0,-22.677 c 0,-8.965 -7.293,-16.258 -16.258,-16.258 l -22.677,0 c -9.792,0 -17.758,-7.966 -17.758,-17.758 l 0,-22.677 c 0,-9.792 7.966,-17.758 17.758,-17.758 l 22.677,0 c 8.965,0 16.258,-7.293 16.258,-16.258 l 0,-22.677 c 0,-9.792 7.966,-17.758 17.758,-17.758 l 22.677,0 c 8.964,0 16.258,-7.293 16.258,-16.258 l 0,-22.677 c 0,-9.791 7.966,-17.758 17.758,-17.758 l 22.677,0 c 8.965,0 16.258,-7.293 16.258,-16.258 l 0,-136.063 c 0,-8.965 -7.293,-16.258 -16.258,-16.258 l -22.677,0 z" /></g><g
       transform="matrix(0.28222224,0,0,0.2822225,63.19179,49.516191)"
       id="g56"><path
         id="path58"
         style="fill:#a09a97;fill-opacity:1;fill-rule:nonzero;stroke:none"
         d="m 0,0 c -32.876,0 -59.528,26.651 -59.528,59.527 0,32.877 26.652,59.528 59.528,59.528 32.876,0 59.527,-26.651 59.527,-59.528 C 59.527,26.651 32.876,0 0,0 m 226.771,0 c -32.875,0 -59.527,26.651 -59.527,59.527 0,32.877 26.652,59.528 59.527,59.528 32.877,0 59.528,-26.651 59.528,-59.528 C 286.299,26.651 259.648,0 226.771,0 m 68.032,280.629 -22.677,0 c -9.393,0 -17.008,-7.614 -17.008,-17.007 l 0,-22.677 c 0,-9.393 -7.615,-17.008 -17.008,-17.008 l -22.677,0 c -9.393,0 -17.008,-7.615 -17.008,-17.008 l 0,-22.677 c 0,-9.393 -7.614,-17.008 -17.008,-17.008 l -136.063,0 c -9.393,0 -17.008,7.615 -17.008,17.008 l 0,22.677 c 0,9.393 -7.615,17.008 -17.008,17.008 l -22.677,0 c -9.393,0 -17.008,7.615 -17.008,17.008 l 0,22.677 c 0,9.393 -7.614,17.007 -17.007,17.007 l -22.678,0 c -9.393,0 -17.008,-7.614 -17.008,-17.007 l 0,-22.677 c 0,-9.393 7.615,-17.008 17.008,-17.008 l 22.678,0 c 9.393,0 17.007,-7.615 17.007,-17.008 l 0,-22.677 c 0,-9.393 -7.614,-17.008 -17.007,-17.008 l -22.678,0 c -9.393,0 -17.008,-7.615 -17.008,-17.008 l 0,-22.677 c 0,-9.393 -7.614,-17.008 -17.007,-17.008 l -22.677,0 c -9.393,0 -17.008,-7.614 -17.008,-17.008 l 0,-22.677 c 0,-9.393 -7.615,-17.008 -17.008,-17.008 l -22.677,0 c -9.393,0 -17.008,-7.614 -17.008,-17.008 l 0,-136.063 c 0,-9.393 7.615,-17.008 17.008,-17.008 l 22.677,0 c 9.393,0 17.008,7.615 17.008,17.008 l 0,79.37 c 0,9.394 7.615,17.009 17.008,17.009 l 22.677,0 c 9.393,0 17.007,-7.615 17.007,-17.009 l 0,-79.37 c 0,-9.393 7.615,-17.008 17.008,-17.008 l 22.678,0 c 9.393,0 17.007,7.615 17.007,17.008 l 0,22.677 c 0,9.394 7.615,17.008 17.008,17.008 l 249.449,0 c 9.393,0 17.008,-7.614 17.008,-17.008 l 0,-22.677 c 0,-9.393 7.615,-17.008 17.008,-17.008 l 22.677,0 c 9.393,0 17.008,7.615 17.008,17.008 l 0,79.37 c 0,9.394 7.615,17.009 17.008,17.009 l 22.677,0 c 9.393,0 17.008,-7.615 17.008,-17.009 l 0,-79.37 c 0,-9.393 7.615,-17.008 17.008,-17.008 l 22.677,0 c 9.393,0 17.008,7.615 17.008,17.008 l 0,136.063 c 0,9.394 -7.615,17.008 -17.008,17.008 l -22.677,0 c -9.393,0 -17.008,7.615 -17.008,17.008 l 0,22.677 c 0,9.394 -7.615,17.008 -17.008,17.008 l -22.677,0 c -9.393,0 -17.008,7.615 -17.008,17.008 l 0,22.677 c 0,9.393 -7.615,17.008 -17.008,17.008 l -22.677,0 c -9.393,0 -17.008,7.615 -17.008,17.008 l 0,22.677 c 0,9.393 7.615,17.008 17.008,17.008 l 22.677,0 c 9.393,0 17.008,7.615 17.008,17.008 l 0,22.677 c 0,9.393 -7.615,17.007 -17.008,17.007 M 0,-1.5 c 33.65,0 61.027,27.377 61.027,61.027 0,33.651 -27.377,61.028 -61.027,61.028 -33.651,0 -61.028,-27.377 -61.028,-61.028 C -61.028,25.877 -33.651,-1.5 0,-1.5 m 226.771,0 c 33.651,0 61.028,27.377 61.028,61.027 0,33.651 -27.377,61.028 -61.028,61.028 -33.65,0 -61.027,-27.377 -61.027,-61.028 0,-33.65 27.377,-61.027 61.027,-61.027 m 68.032,280.629 c 8.551,0 15.508,-6.956 15.508,-15.507 l 0,-22.677 c 0,-8.551 -6.957,-15.508 -15.508,-15.508 l -22.677,0 c -10.205,0 -18.508,-8.303 -18.508,-18.508 l 0,-22.677 c 0,-10.205 8.303,-18.508 18.508,-18.508 l 22.677,0 c 8.551,0 15.508,-6.957 15.508,-15.508 l 0,-22.677 c 0,-10.205 8.303,-18.508 18.508,-18.508 l 22.677,0 c 8.551,0 15.508,-6.957 15.508,-15.508 l 0,-22.677 c 0,-10.205 8.303,-18.508 18.508,-18.508 l 22.677,0 c 8.551,0 15.508,-6.957 15.508,-15.508 l 0,-136.063 c 0,-8.551 -6.957,-15.508 -15.508,-15.508 l -22.677,0 c -8.552,0 -15.508,6.957 -15.508,15.508 l 0,79.37 c 0,10.206 -8.303,18.509 -18.508,18.509 l -22.677,0 c -10.205,0 -18.508,-8.303 -18.508,-18.509 l 0,-79.37 c 0,-8.551 -6.957,-15.508 -15.508,-15.508 l -22.677,0 c -8.551,0 -15.508,6.957 -15.508,15.508 l 0,22.677 c 0,10.205 -8.303,18.508 -18.508,18.508 l -249.449,0 c -10.205,0 -18.508,-8.303 -18.508,-18.508 l 0,-22.677 c 0,-8.551 -6.956,-15.508 -15.507,-15.508 l -22.678,0 c -8.551,0 -15.508,6.957 -15.508,15.508 l 0,79.37 c 0,10.206 -8.302,18.509 -18.507,18.509 l -22.677,0 c -10.205,0 -18.508,-8.303 -18.508,-18.509 l 0,-79.37 c 0,-8.551 -6.957,-15.508 -15.508,-15.508 l -22.677,0 c -8.551,0 -15.508,6.957 -15.508,15.508 l 0,136.063 c 0,8.551 6.957,15.508 15.508,15.508 l 22.677,0 c 10.205,0 18.508,8.303 18.508,18.508 l 0,22.677 c 0,8.551 6.957,15.508 15.508,15.508 l 22.677,0 c 10.205,0 18.507,8.303 18.507,18.508 l 0,22.677 c 0,8.551 6.957,15.508 15.508,15.508 l 22.678,0 c 10.205,0 18.507,8.303 18.507,18.508 l 0,22.677 c 0,10.205 -8.302,18.508 -18.507,18.508 l -22.678,0 c -8.551,0 -15.508,6.957 -15.508,15.508 l 0,22.677 c 0,8.551 6.957,15.507 15.508,15.507 l 22.678,0 c 8.551,0 15.507,-6.956 15.507,-15.507 l 0,-22.677 c 0,-10.205 8.303,-18.508 18.508,-18.508 l 22.677,0 c 8.552,0 15.508,-6.957 15.508,-15.508 l 0,-22.677 c 0,-10.205 8.303,-18.508 18.508,-18.508 l 136.063,0 c 10.206,0 18.508,8.303 18.508,18.508 l 0,22.677 c 0,8.551 6.957,15.508 15.508,15.508 l 22.677,0 c 10.205,0 18.508,8.303 18.508,18.508 l 0,22.677 c 0,8.551 6.957,15.507 15.508,15.507 l 22.677,0" /></g><path
       d="m 63.406249,83.215944 c -9.317366,0 -16.897785,-7.551096 -16.897785,-16.832403 0,-9.281308 7.580419,-16.832127 16.897785,-16.832127 9.317355,0 16.897497,7.550819 16.897497,16.832127 0,9.281307 -7.580142,16.832403 -16.897497,16.832403 m 63.570901,0 c -9.31707,0 -16.8975,-7.551096 -16.8975,-16.832403 0,-9.281308 7.58043,-16.832127 16.8975,-16.832127 9.31764,0 16.89778,7.550819 16.89778,16.832127 0,9.281307 -7.58014,16.832403 -16.89778,16.832403 m 44.50001,-65.699936 c -2.51316,0 -4.55763,2.036543 -4.55763,4.539986 l 0,22.163772 c 0,2.73438 -2.23311,4.958855 -4.97811,4.958855 l -6.35705,0 c -2.74501,0 -4.97812,-2.224475 -4.97812,-4.958855 l 0,-22.163772 c 0,-2.503443 -2.04446,-4.539986 -4.55763,-4.539986 l -6.35706,0 c -2.51289,0 -4.55761,2.036543 -4.55761,4.539986 l 0,6.332466 c 0,2.734379 -2.23311,4.958854 -4.97812,4.958854 l -69.928256,0 c -2.744717,0 -4.978118,-2.224475 -4.978118,-4.958854 l 0,-6.332466 c 0,-2.503443 -2.044454,-4.539986 -4.557337,-4.539986 l -6.35734,0 c -2.513173,0 -4.557626,2.036543 -4.557626,4.539986 l 0,22.163772 c 0,2.73438 -2.233112,4.958855 -4.97783,4.958855 l -6.35706,0 c -2.745005,0 -4.978119,-2.224475 -4.978119,-4.958855 l 0,-22.163772 c 0,-2.503443 -2.044732,-4.539986 -4.557616,-4.539986 l -6.35707,0 c -2.513163,0 -4.557616,2.036543 -4.557616,4.539986 l 0,37.99508 c 0,2.503442 2.044453,4.539986 4.557616,4.539986 l 6.35707,0 c 2.744996,0 4.978109,2.224754 4.978109,4.958854 l 0,6.332465 c 0,2.503445 2.044453,4.539986 4.557626,4.539986 l 6.35706,0 c 2.744718,0 4.97783,2.224475 4.97783,4.958855 l 0,6.332466 c 0,2.503443 2.044453,4.539986 4.557626,4.539986 l 6.35734,0 c 2.744716,0 4.977839,2.224475 4.977839,4.958858 l 0,6.33247 c 0,2.73438 -2.233123,4.95885 -4.977839,4.95885 l -6.35734,0 c -2.513173,0 -4.557626,2.03654 -4.557626,4.53999 l 0,6.33247 c 0,2.50316 2.044453,4.5397 4.557626,4.5397 l 6.35734,0 c 2.512883,0 4.557337,-2.03654 4.557337,-4.5397 l 0,-6.33247 c 0,-2.73438 2.233401,-4.95886 4.978118,-4.95886 l 6.357061,0 c 2.513172,0 4.557626,-2.03682 4.557626,-4.53998 l 0,-6.33247 c 0,-2.734383 2.233391,-4.958858 4.978109,-4.958858 l 38.14266,0 c 2.745,0 4.97812,2.224475 4.97812,4.958858 l 0,6.33247 c 0,2.50316 2.04444,4.53998 4.55762,4.53998 l 6.35706,0 c 2.74501,0 4.97812,2.22448 4.97812,4.95886 l 0,6.33247 c 0,2.50316 2.04472,4.5397 4.55761,4.5397 l 6.35706,0 c 2.51317,0 4.55763,-2.03654 4.55763,-4.5397 l 0,-6.33247 c 0,-2.50345 -2.04446,-4.53999 -4.55763,-4.53999 l -6.35706,0 c -2.74499,0 -4.97811,-2.22447 -4.97811,-4.95885 l 0,-6.33247 c 0,-2.734383 2.23312,-4.958858 4.97811,-4.958858 l 6.35706,0 c 2.51317,0 4.55763,-2.036543 4.55763,-4.539986 l 0,-6.332466 c 0,-2.73438 2.23311,-4.958855 4.97812,-4.958855 l 6.35705,0 c 2.51289,0 4.55762,-2.036541 4.55762,-4.539986 l 0,-6.332465 c 0,-2.7341 2.23311,-4.958854 4.97812,-4.958854 l 6.35706,0 c 2.51317,0 4.55762,-2.036544 4.55762,-4.539986 l 0,-37.99508 c 0,-2.503443 -2.04445,-4.539986 -4.55762,-4.539986 l -6.35706,0 z"
       style="fill:#d3d1cb;fill-opacity:1;fill-rule:nonzero;stroke:none"
       id="path62" /><g
       transform="matrix(0.28222224,0,0,0.2822225,96.791816,41.516143)"
       id="g116"><path
         id="path118"
         style="fill:#a09188;fill-opacity:1;fill-rule:nonzero;stroke:none"
         d="m 0,0 c 0,4.697 -3.807,8.504 -8.504,8.504 -4.697,0 -8.504,-3.807 -8.504,-8.504 0,-4.697 3.807,-8.504 8.504,-8.504 C -3.807,-8.504 0,-4.697 0,0" /></g><g
       transform="matrix(0.28222224,0,0,0.2822225,96.791816,41.516143)"
       id="g120"><path
         id="path122"
         style="fill:none;stroke:#7f7b79;stroke-width:1;stroke-linecap:butt;stroke-linejoin:miter;stroke-miterlimit:10;stroke-dasharray:none;stroke-opacity:1"
         d="m 0,0 c 0,4.697 -3.807,8.504 -8.504,8.504 -4.697,0 -8.504,-3.807 -8.504,-8.504 0,-4.697 3.807,-8.504 8.504,-8.504 C -3.807,-8.504 0,-4.697 0,0 Z" /></g><g
       transform="matrix(0.28222224,0,0,0.2822225,94.969224,40.516088)"
       id="g124"><path
         id="path126"
         style="fill:#54504e;fill-opacity:1;fill-rule:nonzero;stroke:none"
         d="M 0,0 2.045,3.543 0,7.087 -4.092,7.087 -6.137,3.543 -4.092,0 0,0 Z" /></g><g
       transform="matrix(0.28222224,0,0,0.2822225,167.19179,60.716079)"
       id="g128"><path
         id="path130"
         style="fill:#a09188;fill-opacity:1;fill-rule:nonzero;stroke:none"
         d="m 0,0 c 0,4.697 -3.807,8.504 -8.504,8.504 -4.697,0 -8.504,-3.807 -8.504,-8.504 0,-4.696 3.807,-8.504 8.504,-8.504 C -3.807,-8.504 0,-4.696 0,0" /></g><g
       transform="matrix(0.28222224,0,0,0.2822225,167.19179,60.716079)"
       id="g132"><path
         id="path134"
         style="fill:none;stroke:#7f7b79;stroke-width:1;stroke-linecap:butt;stroke-linejoin:miter;stroke-miterlimit:10;stroke-dasharray:none;stroke-opacity:1"
         d="m 0,0 c 0,4.697 -3.807,8.504 -8.504,8.504 -4.697,0 -8.504,-3.807 -8.504,-8.504 0,-4.696 3.807,-8.504 8.504,-8.504 C -3.807,-8.504 0,-4.696 0,0 Z" /></g><g
       transform="matrix(0.28222224,0,0,0.2822225,165.3692,59.716165)"
       id="g136"><path
         id="path138"
         style="fill:#54504e;fill-opacity:1;fill-rule:nonzero;stroke:none"
         d="M 0,0 2.046,3.543 0,7.086 -4.091,7.086 -6.137,3.543 -4.091,0 0,0 Z" /></g><g
       transform="matrix(0.28222224,0,0,0.2822225,26.391815,60.716079)"
       id="g140"><path
         id="path142"
         style="fill:#a09188;fill-opacity:1;fill-rule:nonzero;stroke:none"
         d="m 0,0 c 0,4.697 -3.807,8.504 -8.504,8.504 -4.697,0 -8.504,-3.807 -8.504,-8.504 0,-4.696 3.807,-8.504 8.504,-8.504 C -3.807,-8.504 0,-4.696 0,0" /></g><g
       transform="matrix(0.28222224,0,0,0.2822225,26.391815,60.716079)"
       id="g144"><path
         id="path146"
         style="fill:none;stroke:#7f7b79;stroke-width:1;stroke-linecap:butt;stroke-linejoin:miter;stroke-miterlimit:10;stroke-dasharray:none;stroke-opacity:1"
         d="m 0,0 c 0,4.697 -3.807,8.504 -8.504,8.504 -4.697,0 -8.504,-3.807 -8.504,-8.504 0,-4.696 3.807,-8.504 8.504,-8.504 C -3.807,-8.504 0,-4.696 0,0 Z" /></g><g
       transform="matrix(0.28222224,0,0,0.2822225,24.569168,59.716165)"
       id="g148"><path
         id="path150"
         style="fill:#54504e;fill-opacity:1;fill-rule:nonzero;stroke:none"
         d="M 0,0 2.046,3.543 0,7.086 -4.091,7.086 -6.137,3.543 -4.091,0 0,0 Z" /></g></g></svg>